<?xml version="1.0" encoding="UTF-8" standalone="no"?>
<!-- Created with Inkscape (http://www.inkscape.org/) -->

<svg
   xmlns:dc="http://purl.org/dc/elements/1.1/"
   xmlns:cc="http://creativecommons.org/ns#"
   xmlns:rdf="http://www.w3.org/1999/02/22-rdf-syntax-ns#"
   xmlns:svg="http://www.w3.org/2000/svg"
   xmlns="http://www.w3.org/2000/svg"
   xmlns:sodipodi="http://sodipodi.sourceforge.net/DTD/sodipodi-0.dtd"
   xmlns:inkscape="http://www.inkscape.org/namespaces/inkscape"
   width="450"
   height="300"
   id="svg2"
   version="1.1"
   inkscape:version="0.48.4 r9939"
   inkscape:export-filename="/home/crow/Downloads/Material/Vertical-Logo.svg.png"
   inkscape:export-xdpi="90"
   inkscape:export-ydpi="90"
   sodipodi:docname="New document 1">
  <defs
     id="defs4">
    <inkscape:perspective
       id="perspective3015"
       inkscape:persp3d-origin="463.27818 : 616.01913 : 1"
       inkscape:vp_z="604.75833 : 682.71691 : 1"
       inkscape:vp_y="0 : 380.27471 : 0"
       inkscape:vp_x="321.79803 : 682.71691 : 1"
       sodipodi:type="inkscape:persp3d" />
  </defs>
  <sodipodi:namedview
     id="base"
     pagecolor="#ffffff"
     bordercolor="#666666"
     borderopacity="1.0"
     inkscape:pageopacity="0.0"
     inkscape:pageshadow="2"
     inkscape:zoom="0.70710678"
     inkscape:cx="44.587916"
     inkscape:cy="63.409529"
     inkscape:document-units="px"
     inkscape:current-layer="g4036"
     showgrid="false"
     inkscape:window-width="1327"
     inkscape:window-height="744"
     inkscape:window-x="39"
     inkscape:window-y="24"
     inkscape:window-maximized="1"
     inkscape:snap-bbox="false"
     inkscape:bbox-paths="false"
     inkscape:bbox-nodes="false"
     inkscape:snap-bbox-midpoints="true"
     inkscape:snap-global="false" />
  <metadata
     id="metadata7">
    <rdf:RDF>
      <cc:Work
         rdf:about="">
        <dc:format>image/svg+xml</dc:format>
        <dc:type
           rdf:resource="http://purl.org/dc/dcmitype/StillImage" />
        <dc:title></dc:title>
      </cc:Work>
    </rdf:RDF>
  </metadata>
  <g
     inkscape:label="Layer 1"
     inkscape:groupmode="layer"
     id="layer1"
     transform="translate(0,-752.36218)">
    <g
       transform="translate(-13.214269,-452.50001)"
       id="layer1-3"
       inkscape:label="Layer 1">
      <g
         transform="translate(-7.1449411e-6,-2.758987e-6)"
         id="g2997">
        <text
           sodipodi:linespacing="125%"
           id="text3135"
           y="379.68542"
           x="309.10669"
           style="font-size:40px;font-style:normal;font-weight:normal;line-height:125%;letter-spacing:0px;word-spacing:0px;fill:#000000;fill-opacity:1;stroke:none;font-family:Sans"
           xml:space="preserve"><tspan
             y="379.68542"
             x="309.10669"
             id="tspan3137"
             sodipodi:role="line" /></text>
        <g
           transform="matrix(1.6497411,0,0,1.6497411,319.1903,-785.42213)"
           id="g3643"
           inkscape:label="Layer 1" />
        <g
           transform="matrix(1.2736893,0,0,1.2736893,229.9829,-471.52731)"
           id="g3645">
          <g
             transform="matrix(0.88847655,0,0,0.88847655,-222.20077,720.33105)"
             id="g3649">
            <g
               id="g3217"
               transform="matrix(1.4628017,0,0,1.4628017,-113.46103,-195.24553)">
              <g
                 transform="translate(1.5866271,0)"
                 id="g3187">
                <g
                   id="g4036"
                   transform="translate(-128.2,283.99814)">
                  <g
                     id="g4101"
                     transform="translate(1.9114849,4.4226188)">
                    <path
                       inkscape:connector-curvature="0"
                       style="fill:#00be4b;fill-opacity:1;stroke:none"
                       d="m 280.69922,375.31289 c 0,16.53579 13.41129,29.93016 29.94706,29.93016 16.53567,0 29.94694,-13.39437 29.94694,-29.93016 0,-16.53578 -13.41127,-29.94709 -29.94694,-29.94709 -16.53577,0 -29.94706,13.41131 -29.94706,29.94709 z m 9.55683,-0.0674 c 3e-5,-1.95093 0.2693,-3.83467 0.80619,-5.66009 0.51908,-1.82554 1.11825,-3.32128 1.78039,-4.48471 0.66219,-1.18134 1.45334,-2.31783 2.40182,-3.40941 0.94851,-1.10976 1.68244,-1.87155 2.18344,-2.30103 0.50116,-0.44752 1.02518,-0.88169 1.56208,-1.29347 0.1074,-0.0725 0.16575,-0.13003 0.20155,-0.16655 l 2.53619,3.39287 c -0.60843,0.48325 -1.10327,0.87138 -1.46125,1.17575 -0.35787,0.30424 -0.95597,0.93267 -1.79715,1.8811 -0.8411,0.93076 -1.5144,1.85847 -2.01552,2.77143 -0.51896,0.91271 -0.98132,2.09304 -1.41086,3.56069 -0.42948,1.44961 -0.65499,2.95985 -0.65507,4.53493 8e-5,2.27257 0.43434,4.44163 1.29334,6.4997 0.85908,2.0582 2.01036,3.83913 3.45994,5.32471 1.44965,1.48518 3.18444,2.66692 5.20672,3.54363 2.00442,0.85907 4.11291,1.27672 6.33203,1.27672 2.20129,0 4.3109,-0.41765 6.31527,-1.27672 2.00442,-0.87671 3.73921,-2.05945 5.20672,-3.52711 1.44959,-1.48545 2.6009,-3.24934 3.45986,-5.30766 0.85908,-2.07575 1.2933,-4.2607 1.2933,-6.53327 0,-4.20576 -1.36109,-7.85393 -4.08137,-10.96813 -2.73807,-3.13148 -6.11795,-4.95612 -10.14467,-5.47497 l 0,17.41709 -4.16536,0 0,-21.80086 2.11625,0 c 2.774,0 5.43786,0.55316 7.96125,1.66281 2.50552,1.09147 4.6589,2.58849 6.46635,4.46755 1.80756,1.86141 3.24275,4.0742 4.31653,6.65138 1.07382,2.55924 1.61242,5.23505 1.61242,8.04513 0,2.8275 -0.5386,5.55114 -1.61242,8.14572 -1.07378,2.5773 -2.50897,4.80586 -4.31653,6.68506 -1.80745,1.86127 -3.96083,3.34125 -6.46635,4.45052 -2.52339,1.11002 -5.18725,1.66318 -7.96125,1.66318 -2.7739,0 -5.42096,-0.55316 -7.94445,-1.66318 -2.52335,-1.10927 -4.69129,-2.58925 -6.51679,-4.45052 -1.82541,-1.8792 -3.27627,-4.10776 -4.35016,-6.68506 -1.07371,-2.59458 -1.61236,-5.31822 -1.61241,-8.14572 z"
                       id="path3647" />
                    <g
                       id="g3181"
                       transform="matrix(0.98139689,0,0,0.98139689,19.036421,-22.770917)">
                      <text
                         xml:space="preserve"
                         style="font-size:34.48464584px;font-style:normal;font-variant:normal;font-weight:normal;font-stretch:normal;line-height:125%;letter-spacing:0px;word-spacing:0px;fill:#00e44b;fill-opacity:1;stroke:none;font-family:Sawasdee;-inkscape-font-specification:Sawasdee"
                         x="290.01306"
                         y="480.02139"
                         id="text3651"
                         sodipodi:linespacing="125%"><tspan
                           sodipodi:role="line"
                           id="tspan3653"
                           x="290.01306"
                           y="480.02139"
                           style="font-weight:bold;fill:#00e44b;fill-opacity:1;-inkscape-font-specification:Sawasdee Bold">o   u   t   a</tspan></text>
                      <text
                         sodipodi:linespacing="125%"
                         id="text3655"
                         y="469.18088"
                         x="263.03262"
                         style="font-size:34.48464584px;font-style:normal;font-variant:normal;font-weight:normal;font-stretch:normal;line-height:125%;letter-spacing:0px;word-spacing:0px;fill:#00be4b;fill-opacity:1;stroke:none;font-family:Sawasdee;-inkscape-font-specification:Sawasdee"
                         xml:space="preserve"><tspan
                           y="469.18088"
                           x="263.03262"
                           id="tspan3657"
                           sodipodi:role="line"
                           style="font-weight:bold;fill:#00be4b;fill-opacity:1;-inkscape-font-specification:Sawasdee Bold">L   g   s   r</tspan></text>
                    </g>
                    <g
                       transform="translate(-6.6450428,-12.081895)"
                       id="g4091">
                      <rect
                         rx="2.7412286"
                         style="fill:#2980ff;fill-opacity:0.62745098"
                         id="rect3665"
                         width="5.4824572"
                         height="21.647112"
                         x="355.4256"
                         y="395.67783"
                         ry="2.7412286" />
                      <rect
                         rx="2.7412286"
                         ry="2.7412286"
                         y="365.63321"
                         x="378.50156"
                         height="51.691738"
                         width="5.4824572"
                         id="rect3667"
                         style="fill:#ff0000" />
                      <rect
                         rx="2.7412286"
                         transform="scale(-1,1)"
                         style="fill:#ff0000;fill-opacity:1"
                         id="rect3669"
                         width="5.4824572"
                         height="45.143112"
                         x="-476.28314"
                         y="372.18182"
                         ry="2.7412286" />
                      <rect
                         rx="2.7412286"
                         transform="scale(-1,1)"
                         ry="2.7412286"
                         y="388.05981"
                         x="-453.21008"
                         height="29.265118"
                         width="5.4824572"
                         id="rect3671"
                         style="fill:#ffff00" />
                      <rect
                         rx="2.7412286"
                         transform="scale(-1,1)"
                         style="fill:#00be4b;fill-opacity:1"
                         id="rect3673"
                         width="5.4824572"
                         height="63.864052"
                         x="-430.13422"
                         y="353.46088"
                         ry="2.7412286" />
                      <rect
                         rx="2.7412286"
                         transform="scale(-1,1)"
                         ry="2.7412286"
                         y="382.22229"
                         x="-407.06"
                         height="35.102634"
                         width="5.4824572"
                         id="rect3675"
                         style="fill:#2980ff;fill-opacity:0.62745098" />
                    </g>
                  </g>
                </g>
              </g>
            </g>
          </g>
        </g>
        <flowRoot
           xml:space="preserve"
           id="flowRoot3085"
           style="font-size:40px;font-style:normal;font-weight:bold;line-height:125%;letter-spacing:0px;word-spacing:0px;fill:#000000;fill-opacity:1;stroke:none;font-family:Sans;-inkscape-font-specification:Sans Bold"
           transform="translate(7.1449411e-6,2.758987e-6)"><flowRegion
             id="flowRegion3087"><rect
               id="rect3089"
               width="302.03561"
               height="158.59395"
               x="425.27423"
               y="103.82894"
               style="font-weight:bold;-inkscape-font-specification:Sans Bold" /></flowRegion><flowPara
             id="flowPara3091" /></flowRoot>      </g>
    </g>
  </g>
</svg>
